<?xml version="1.0" encoding="utf-8"?>
<!-- Generator: Adobe Illustrator 22.0.0, SVG Export Plug-In . SVG Version: 6.00 Build 0)  -->
<svg version="1.1" xmlns="http://www.w3.org/2000/svg" xmlns:xlink="http://www.w3.org/1999/xlink" x="0px" y="0px"
	 viewBox="0 0 32 32" style="enable-background:new 0 0 32 32;" xml:space="preserve">
<style type="text/css">
	.st0{display:none;}
	.st1{display:inline;fill:#FFCE4B;}
	.st2{display:inline;fill:#FABF3A;}
	.st3{display:inline;fill:none;stroke:#000000;stroke-width:3;stroke-miterlimit:10;}
	.st4{display:inline;}
	.st5{display:inline;fill:#7E7D7D;}
	.st6{display:inline;fill:#FFFFFF;}
	.st7{fill:#4D4D4D;}
</style>
<g id="Слой_1" class="st0">
	<path class="st1" d="M5,0v32l11-8l0,0l11,8V0H5z M20.4,18L16,15.7L11.7,18l0.8-4.9L9,9.7L13.8,9L16,4.5l0,0L18.2,9l4.9,0.7
		l-3.5,3.5L20.4,18z"/>
	<polygon class="st2" points="27.1,0 27.1,32 27,32 16,24 16,15.7 20.4,18 19.5,13.1 23.1,9.6 18.2,9 16,4.5 16,0 	"/>
</g>
<g id="Слой_2" class="st0">
	<circle class="st3" cx="11.8" cy="12.1" r="8.6"/>
	<path class="st4" d="M27.5,27.3l-0.4,0.4c-0.5,0.5-1.3,0.5-1.8,0L20.6,23c-0.5-0.5-0.5-1.3,0-1.8l0.4-0.4c0.5-0.5,1.3-0.5,1.8,0
		l4.8,4.7C27.9,26,27.9,26.8,27.5,27.3z"/>
	<path class="st4" d="M22,22.3L22,22.3c-0.3,0.3-0.8,0.3-1.1,0l-2.6-2.6c-0.3-0.3-0.3-0.8,0-1.1l0,0c0.3-0.3,0.8-0.3,1.1,0l2.6,2.6
		C22.3,21.5,22.3,22,22,22.3z"/>
</g>
<g id="Слой_3" class="st0">
	<path class="st5" d="M32,32H0c0-6.5,3.8-12.1,9.4-14.6c1.6,1.8,4,2.9,6.6,2.9s5-1.1,6.6-2.9C28.2,19.9,32,25.5,32,32z"/>
	<circle class="st5" cx="16" cy="9.9" r="9"/>
</g>
<g id="Слой_4" class="st0">
	<path class="st6" d="M30.7,9.5H1.3C0.6,9.5,0,8.9,0,8.2V1.3C0,0.6,0.6,0,1.3,0h29.4C31.4,0,32,0.6,32,1.3v6.8
		C32,8.9,31.4,9.5,30.7,9.5z"/>
	<path class="st6" d="M30.7,20.7H1.3c-0.7,0-1.3-0.6-1.3-1.3v-6.8c0-0.7,0.6-1.3,1.3-1.3h29.4c0.7,0,1.3,0.6,1.3,1.3v6.8
		C32,20.1,31.4,20.7,30.7,20.7z"/>
	<path class="st6" d="M30.7,32H1.3C0.6,32,0,31.4,0,30.7v-6.8c0-0.7,0.6-1.3,1.3-1.3h29.4c0.7,0,1.3,0.6,1.3,1.3v6.8
		C32,31.4,31.4,32,30.7,32z"/>
</g>
<g id="Слой_5">
	<g>
		<path class="st7" d="M16.1,3.2c7.2,0,13,5.8,13,13s-5.8,13-13,13s-13-5.8-13-13S8.9,3.2,16.1,3.2 M16.1,1.2c-8.3,0-15,6.7-15,15
			s6.7,15,15,15s15-6.7,15-15S24.4,1.2,16.1,1.2L16.1,1.2z"/>
	</g>
	<g>
		<path class="st7" d="M24.5,14.7H7.4c-0.8,0-1.5,0.7-1.5,1.5c0,0.8,0.7,1.5,1.5,1.5h17.1c0.8,0,1.5-0.7,1.5-1.5
			C26,15.4,25.3,14.7,24.5,14.7L24.5,14.7z"/>
	</g>
	<g>
		<path class="st7" d="M15.9,6.1c-0.8,0-1.5,0.7-1.5,1.5v17.1c0,0.8,0.7,1.5,1.5,1.5c0.8,0,1.5-0.7,1.5-1.5V7.6
			C17.4,6.8,16.8,6.1,15.9,6.1L15.9,6.1z"/>
	</g>
</g>
</svg>
