<?xml version="1.0" encoding="utf-8"?>
<!-- Generator: Adobe Illustrator 17.0.0, SVG Export Plug-In . SVG Version: 6.00 Build 0)  -->
<!DOCTYPE svg PUBLIC "-//W3C//DTD SVG 1.1//EN" "http://www.w3.org/Graphics/SVG/1.1/DTD/svg11.dtd">
<svg version="1.1" id="Layer_1" xmlns="http://www.w3.org/2000/svg" xmlns:xlink="http://www.w3.org/1999/xlink" x="0px" y="0px"
	 width="612px" height="792px" viewBox="0 0 612 792" enable-background="new 0 0 612 792" xml:space="preserve">
<g id="Слой_1" display="none">
	<path display="inline" fill="#FFCE4B" d="M95.625,90v612L306,549l0,0l210.375,153V90H95.625z M390.15,434.25L306,390.262
		l-82.238,43.988l15.3-93.712l-66.938-65.025l91.8-13.387L306,176.063l0,0l42.075,86.063l93.712,13.387L374.85,342.45L390.15,434.25
		z"/>
	<polygon display="inline" fill="#FABF3A" points="518.288,90 518.288,702 516.375,702 306,549 306,390.262 390.15,434.25 
		372.938,340.538 441.788,273.6 348.075,262.125 306,176.063 306,90 	"/>
</g>
<g id="Слой_2" display="none">
	
		<circle display="inline" fill="none" stroke="#000000" stroke-width="3" stroke-miterlimit="10" cx="225.675" cy="321.413" r="164.475"/>
	<path display="inline" d="M525.938,612.112l-7.65,7.65c-9.563,9.563-24.863,9.563-34.425,0l-89.888-89.887
		c-9.563-9.563-9.563-24.862,0-34.425l7.65-7.65c9.563-9.563,24.862-9.563,34.425,0l91.8,89.887
		C533.587,587.25,533.587,602.55,525.938,612.112z"/>
	<path display="inline" d="M420.75,516.487L420.75,516.487c-5.737,5.737-15.3,5.737-21.038,0l-49.725-49.725
		c-5.737-5.737-5.737-15.3,0-21.038l0,0c5.737-5.737,15.3-5.737,21.038,0l49.725,49.725
		C426.487,501.188,426.487,510.75,420.75,516.487z"/>
</g>
<g id="Слой_3" display="none">
	<path display="inline" fill="#7E7D7D" d="M612,702H0c0-124.313,72.675-231.413,179.775-279.225
		c30.6,34.425,76.5,55.462,126.225,55.462s95.625-21.038,126.225-55.462C539.325,470.587,612,577.688,612,702z"/>
	<circle display="inline" fill="#7E7D7D" cx="306" cy="279.337" r="172.125"/>
</g>
<g id="Слой_4" display="none">
	<path display="inline" fill="#FFFFFF" d="M587.138,271.688H24.862C11.475,271.688,0,260.212,0,246.825V114.862
		C0,101.475,11.475,90,24.862,90h562.275C600.525,90,612,101.475,612,114.862v130.05C612,260.212,600.525,271.688,587.138,271.688z"
		/>
	<path display="inline" fill="#FFFFFF" d="M587.138,485.888H24.862C11.475,485.888,0,474.413,0,461.025v-130.05
		c0-13.388,11.475-24.863,24.862-24.863h562.275c13.388,0,24.862,11.475,24.862,24.863v130.05
		C612,474.413,600.525,485.888,587.138,485.888z"/>
	<path display="inline" fill="#FFFFFF" d="M587.138,702H24.862C11.475,702,0,690.525,0,677.138v-130.05
		c0-13.388,11.475-24.862,24.862-24.862h562.275c13.388,0,24.862,11.475,24.862,24.862v130.05C612,690.525,600.525,702,587.138,702z
		"/>
</g>
<g id="Слой_5">
	<g>
		<path d="M307.913,151.2c137.7,0,248.625,110.925,248.625,248.625S445.612,648.45,307.913,648.45S59.288,537.525,59.288,399.825
			S170.212,151.2,307.913,151.2 M307.913,112.95c-158.738,0-286.875,128.137-286.875,286.875S149.175,686.7,307.913,686.7
			s286.875-128.138,286.875-286.875S466.65,112.95,307.913,112.95L307.913,112.95z"/>
	</g>
	<g>
		<path d="M468.563,371.137H141.525c-15.3,0-28.688,13.388-28.688,28.688c0,15.3,13.387,28.688,28.688,28.688h327.037
			c15.3,0,28.688-13.388,28.688-28.688C497.25,384.525,483.862,371.137,468.563,371.137L468.563,371.137z"/>
	</g>
	<g>
		<path d="M304.087,206.662c-15.3,0-28.688,13.387-28.688,28.688v327.038c0,15.3,13.387,28.688,28.688,28.688
			c15.3,0,28.688-13.388,28.688-28.688V235.35C332.775,220.05,321.3,206.662,304.087,206.662L304.087,206.662z"/>
	</g>
</g>
</svg>
