<?xml version="1.0" encoding="utf-8"?>
<!-- Generator: Adobe Illustrator 17.0.0, SVG Export Plug-In . SVG Version: 6.00 Build 0)  -->
<!DOCTYPE svg PUBLIC "-//W3C//DTD SVG 1.1//EN" "http://www.w3.org/Graphics/SVG/1.1/DTD/svg11.dtd">
<svg version="1.1" id="Layer_1" xmlns="http://www.w3.org/2000/svg" xmlns:xlink="http://www.w3.org/1999/xlink" x="0px" y="0px"
	 width="32px" height="32px" viewBox="0 0 32 32" enable-background="new 0 0 32 32" xml:space="preserve">
<g id="Слой_5">
	<g>
		<path fill="#E8EAEA" d="M16,2.239c7.621,0,13.761,6.139,13.761,13.761S23.621,29.761,16,29.761S2.239,23.621,2.239,16
			S8.379,2.239,16,2.239 M16,0.122C7.214,0.122,0.122,7.214,0.122,16S7.214,31.878,16,31.878S31.878,24.786,31.878,16
			S24.786,0.122,16,0.122L16,0.122z"/>
	</g>
	<g>
		<path fill="#E8EAEA" d="M24.891,14.412h-18.1c-0.847,0-1.588,0.741-1.588,1.588c0,0.847,0.741,1.588,1.588,1.588h18.1
			c0.847,0,1.588-0.741,1.588-1.588C26.479,15.153,25.738,14.412,24.891,14.412L24.891,14.412z"/>
	</g>
	<g>
		<path fill="#E8EAEA" d="M15.788,5.309c-0.847,0-1.588,0.741-1.588,1.588v18.1c0,0.847,0.741,1.588,1.588,1.588
			c0.847,0,1.588-0.741,1.588-1.588v-18.1C17.376,6.05,16.741,5.309,15.788,5.309L15.788,5.309z"/>
	</g>
</g>
</svg>
