<?xml version="1.0" encoding="utf-8"?>
<!-- Generator: Adobe Illustrator 22.0.0, SVG Export Plug-In . SVG Version: 6.00 Build 0)  -->
<svg version="1.1" xmlns="http://www.w3.org/2000/svg" xmlns:xlink="http://www.w3.org/1999/xlink" x="0px" y="0px"
	 viewBox="0 0 32 32" style="enable-background:new 0 0 32 32;" xml:space="preserve">
<style type="text/css">
	.st0{display:none;}
	.st1{display:inline;fill:#FFCE4B;}
	.st2{display:inline;fill:#FABF3A;}
	.st3{display:inline;}
	.st4{fill:none;stroke:#000000;stroke-width:3;stroke-miterlimit:10;}
	.st5{fill:#FFFFFF;stroke:#000000;stroke-width:2;stroke-miterlimit:10;}
</style>
<g id="Слой_1" class="st0">
	<g id="Слой_1_1_">
		<path class="st1" d="M5,0v32l11-8l0,0l11,8V0H5z M20.4,18L16,15.7L11.7,18l0.8-4.9L9,9.7L13.8,9L16,4.5l0,0L18.2,9l4.9,0.7
			l-3.5,3.5L20.4,18z"/>
		<polygon class="st2" points="27.1,0 27.1,32 27,32 16,24 16,15.7 20.4,18 19.5,13.1 23.1,9.6 18.2,9 16,4.5 16,0 		"/>
	</g>
	<g id="Слой_2_1_" class="st3">
		<circle class="st4" cx="11.8" cy="12.1" r="8.6"/>
		<path d="M27.5,27.3l-0.4,0.4c-0.5,0.5-1.3,0.5-1.8,0L20.6,23c-0.5-0.5-0.5-1.3,0-1.8l0.4-0.4c0.5-0.5,1.3-0.5,1.8,0l4.8,4.7
			C27.9,26,27.9,26.8,27.5,27.3z"/>
		<path d="M22,22.3L22,22.3c-0.3,0.3-0.8,0.3-1.1,0l-2.6-2.6c-0.3-0.3-0.3-0.8,0-1.1l0,0c0.3-0.3,0.8-0.3,1.1,0l2.6,2.6
			C22.3,21.5,22.3,22,22,22.3z"/>
	</g>
</g>
<g id="Слой_2">
	<path class="st5" d="M25.6,30.4H7c-2.6,0-4.7-2.1-4.7-4.7V6.3c0-2.6,2.1-4.7,4.7-4.7h18.6c2.6,0,4.7,2.1,4.7,4.7v19.3
		C30.3,28.3,28.2,30.4,25.6,30.4z"/>
	<path d="M25.8,10.1h-14c-0.4,0-0.8-0.4-0.8-0.8v-1c0-0.4,0.4-0.8,0.8-0.8h14c0.4,0,0.8,0.4,0.8,0.8v1C26.6,9.8,26.2,10.1,25.8,10.1
		z"/>
	<path d="M25.8,14.8h-14c-0.4,0-0.8-0.4-0.8-0.8v-1c0-0.4,0.4-0.8,0.8-0.8h14c0.4,0,0.8,0.4,0.8,0.8v1
		C26.6,14.4,26.2,14.8,25.8,14.8z"/>
	<path d="M25.8,19.8h-14c-0.4,0-0.8-0.4-0.8-0.8v-1c0-0.4,0.4-0.8,0.8-0.8h14c0.4,0,0.8,0.4,0.8,0.8v1
		C26.6,19.4,26.2,19.8,25.8,19.8z"/>
	<path d="M25.8,25.4h-14c-0.4,0-0.8-0.4-0.8-0.8v-1c0-0.4,0.4-0.8,0.8-0.8h14c0.4,0,0.8,0.4,0.8,0.8v1
		C26.6,25.1,26.2,25.4,25.8,25.4z"/>
	<path d="M7.1,10.1h-1c-0.4,0-0.8-0.4-0.8-0.8v-1c0-0.4,0.4-0.8,0.8-0.8h1c0.4,0,0.8,0.4,0.8,0.8v1C7.9,9.8,7.5,10.1,7.1,10.1z"/>
	<path d="M7.1,15.1h-1c-0.4,0-0.8-0.4-0.8-0.8v-1c0-0.4,0.4-0.8,0.8-0.8h1c0.4,0,0.8,0.4,0.8,0.8v1C7.9,14.8,7.5,15.1,7.1,15.1z"/>
	<path d="M7.1,19.8h-1c-0.4,0-0.8-0.4-0.8-0.8v-1c0-0.4,0.4-0.8,0.8-0.8h1c0.4,0,0.8,0.4,0.8,0.8v1C7.9,19.4,7.5,19.8,7.1,19.8z"/>
	<path d="M7.1,25.4h-1c-0.4,0-0.8-0.4-0.8-0.8v-1c0-0.4,0.4-0.8,0.8-0.8h1c0.4,0,0.8,0.4,0.8,0.8v1C7.9,25.1,7.5,25.4,7.1,25.4z"/>
</g>
</svg>
