<?xml version="1.0" encoding="utf-8"?>
<!-- Generator: Adobe Illustrator 17.0.0, SVG Export Plug-In . SVG Version: 6.00 Build 0)  -->
<!DOCTYPE svg PUBLIC "-//W3C//DTD SVG 1.1//EN" "http://www.w3.org/Graphics/SVG/1.1/DTD/svg11.dtd">
<svg version="1.1" id="Слой_1" xmlns="http://www.w3.org/2000/svg" xmlns:xlink="http://www.w3.org/1999/xlink" x="0px" y="0px"
	 width="16px" height="16px" viewBox="0 0 16 16" enable-background="new 0 0 16 16" xml:space="preserve">
<path fill="#D13B51" d="M16,5.8v4.4c0,3.2-2.6,5.8-5.8,5.8H5.8C2.6,16,0,13.4,0,10.2V5.8C0,2.6,2.6,0,5.8,0h4.4
	C13.4,0,16,2.6,16,5.8z"/>
<path opacity="0.63" fill="#AA304D" enable-background="new    " d="M16,5.8v4.4c0,3.2-2.6,5.8-5.8,5.8H8V0h2.2
	C13.4,0,16,2.6,16,5.8z"/>
<linearGradient id="SVGID_1_" gradientUnits="userSpaceOnUse" x1="8.9875" y1="11.05" x2="13.2083" y2="11.05" gradientTransform="matrix(-1 0 0 -1 17.0083 16.1)">
	<stop  offset="0" style="stop-color:#FFFFFF;stop-opacity:0"/>
	<stop  offset="0.936" style="stop-color:#000000;stop-opacity:0.2"/>
</linearGradient>
<polygon fill="url(#SVGID_1_)" points="3.8,2.8 8.021,5.5 8.01,7.3 3.81,4.6 "/>
<linearGradient id="SVGID_2_" gradientUnits="userSpaceOnUse" x1="9.0083" y1="5.6" x2="13.2083" y2="5.6" gradientTransform="matrix(-1 0 0 -1 17.0083 16.1)">
	<stop  offset="0" style="stop-color:#FFFFFF;stop-opacity:0"/>
	<stop  offset="0.936" style="stop-color:#000000;stop-opacity:0.2"/>
</linearGradient>
<polygon fill="url(#SVGID_2_)" points="3.8,5 7.984,7.938 8,16 3.8,13.3 "/>
<linearGradient id="SVGID_3_" gradientUnits="userSpaceOnUse" x1="8.9875" y1="3.5141" x2="10.4083" y2="3.5141" gradientTransform="matrix(-1 0 0 -1 17.0083 16.1)">
	<stop  offset="0" style="stop-color:#FFFFFF;stop-opacity:0"/>
	<stop  offset="0.936" style="stop-color:#000000;stop-opacity:0.2"/>
</linearGradient>
<polygon fill="url(#SVGID_3_)" points="6.608,10.958 8.021,11.95 8.021,14.213 6.6,13.3 "/>
<path fill="#FFFFFF" d="M3.8,13.3L3.8,13.3c-0.5,0-0.9-0.4-0.9-0.9V5.9C2.9,5.4,3.3,5,3.8,5l0,0c0.5,0,0.9,0.4,0.9,0.9v6.5
	C4.7,12.9,4.3,13.3,3.8,13.3z"/>
<path fill="#FFFFFF" d="M3.8,4.6L3.8,4.6c-0.5,0-0.9-0.4-0.9-0.9l0,0c0-0.5,0.4-0.9,0.9-0.9l0,0c0.5,0,0.9,0.4,0.9,0.9l0,0
	C4.7,4.2,4.3,4.6,3.8,4.6z"/>
<path fill="#FFFFFF" d="M12.8,12.9L12.8,12.9c-0.4,0.4-0.9,0.4-1.3,0L6,7.5c-0.4-0.4-0.4-1,0-1.3l0,0c0.4-0.4,0.9-0.4,1.3,0l5.5,5.5
	C13.2,12.1,13.2,12.6,12.8,12.9z"/>
<path fill="#FFFFFF" d="M6,12.9L6,12.9c-0.4-0.4-0.4-0.9,0-1.3l5.5-5.5c0.4-0.4,0.9-0.4,1.3,0l0,0c0.4,0.4,0.4,0.9,0,1.3L7.3,13
	C6.9,13.4,6.3,13.4,6,12.9z"/>
</svg>
