<?xml version="1.0" encoding="utf-8"?>
<!-- Generator: Adobe Illustrator 22.0.0, SVG Export Plug-In . SVG Version: 6.00 Build 0)  -->
<svg version="1.1" xmlns="http://www.w3.org/2000/svg" xmlns:xlink="http://www.w3.org/1999/xlink" x="0px" y="0px"
	 viewBox="0 0 32 32" style="enable-background:new 0 0 32 32;" xml:space="preserve">
<style type="text/css">
	.st0{display:none;fill:#FFCE4B;}
	.st1{display:none;fill:#FABF3A;}
	.st2{fill:#B0D957;}
	.st3{fill:#3B8401;}
	.st4{fill:#E42F42;}
	.st5{fill:#BE3232;}
	.st6{fill:#FFFFFF;}
</style>
<g id="Слой_1">
	<path class="st0" d="M5,0v32l11-8l0,0l11,8V0H5z M20.4,18L16,15.7L11.7,18l0.8-4.9L9,9.7L13.8,9L16,4.5l0,0L18.2,9l4.9,0.7
		l-3.5,3.5L20.4,18z"/>
	<polygon class="st1" points="27.1,0 27.1,32 27,32 16,24 16,15.7 20.4,18 19.5,13.1 23.1,9.6 18.2,9 16,4.5 16,0 	"/>
	<path class="st2" d="M12.3,9.8c0,1.3-1.6,2.3-3.1,2.4c0,0,0,0,0,0s0,0,0,0c-1.4,0-3-1-3-2.3c0-2.5,2.2-6.5,3-6.5c0,0,0,0,0,0h0
		C10,3.5,12.3,7.2,12.3,9.8z"/>
	<path class="st3" d="M12.3,9.8c0,1.3-1.6,2.3-3.1,2.4c0,0,0,0,0,0V3.3h0C10,3.5,12.3,7.2,12.3,9.8z"/>
	<path class="st2" d="M26.5,9.6c0,1.3-1.6,2.3-3.1,2.4c0,0,0,0,0,0s0,0,0,0c-1.4,0-3-1-3-2.3c0-2.5,2.2-6.5,3-6.5c0,0,0,0,0,0h0
		C24.3,3.2,26.5,7,26.5,9.6z"/>
	<path class="st3" d="M26.5,9.6c0,1.3-1.6,2.3-3.1,2.4c0,0,0,0,0,0V3.1h0C24.3,3.2,26.5,7,26.5,9.6z"/>
	<path class="st2" d="M19.3,6.4c0,1.3-1.6,2.3-3.1,2.4c0,0,0,0,0,0s0,0,0,0c-1.4,0-3-1-3-2.3c0-2.5,2.2-6.5,3-6.5c0,0,0,0,0,0h0
		C17.1,0.1,19.3,3.9,19.3,6.4z"/>
	<path class="st3" d="M19.3,6.4c0,1.3-1.6,2.3-3.1,2.4c0,0,0,0,0,0V0h0C17.1,0.1,19.3,3.9,19.3,6.4z"/>
	<path class="st4" d="M30.5,16.8c-0.3,6-6.5,7.1-8.8,9.6C19.1,29.2,17,32,16.2,32c-0.7,0-2.6-2.8-5.2-5.7c-2.3-2.5-8.7-3.8-9.1-9.6
		c-0.4-6.4,4-9.5,9.9-10.5c1.4-0.2,2.8,1.5,4.3,1.5c1.6,0,3.2-1.7,4.7-1.5C26.6,7.4,30.8,10.5,30.5,16.8z"/>
	<path class="st5" d="M30.5,16.8c-0.3,6-6.5,7.1-8.8,9.6C19.1,29.2,17,32,16.2,32V7.8c1.6,0,3.2-1.7,4.7-1.5
		C26.6,7.4,30.8,10.5,30.5,16.8z"/>
	<circle class="st6" cx="5.2" cy="14" r="1.7"/>
	<circle class="st6" cx="6.9" cy="10.4" r="1.1"/>
</g>
<g id="Слой_2">
</g>
</svg>
