<?xml version="1.0" encoding="utf-8"?>
<!-- Generator: Adobe Illustrator 17.0.0, SVG Export Plug-In . SVG Version: 6.00 Build 0)  -->
<!DOCTYPE svg PUBLIC "-//W3C//DTD SVG 1.1//EN" "http://www.w3.org/Graphics/SVG/1.1/DTD/svg11.dtd">
<svg version="1.1" xmlns="http://www.w3.org/2000/svg" xmlns:xlink="http://www.w3.org/1999/xlink" x="0px" y="0px" width="32px"
	 height="32px" viewBox="0 0 32 32" enable-background="new 0 0 32 32" xml:space="preserve">
<g id="Layer_1" display="none">
	
		<image display="inline" overflow="visible" width="225" height="225" xlink:href="../../../../images.png"  transform="matrix(0.1422 0 0 0.1422 0 0)">
	</image>
</g>
<g id="Layer_2">
	<path fill="#545554" d="M22.02,2.09c-4.42,0-8,3.59-8,8c0,1.12,0.23,2.18,0.65,3.14l0.01-0.01l0.55,0.86l-0.09,0.09
		c0.17,0.3,0.37,0.58,0.59,0.85l0.1-0.1l3.19,2.52l-0.05,0.05c0.94,0.39,1.97,0.6,3.05,0.6c4.41,0,8-3.58,8-8
		C30.02,5.68,26.43,2.09,22.02,2.09z M24.74,9.47c-1.14,0-2.07-0.93-2.07-2.07c0-1.14,0.93-2.07,2.07-2.07s2.07,0.93,2.07,2.07
		C26.81,8.54,25.88,9.47,24.74,9.47z"/>
	<path fill="#545554" d="M19.02,17.44l-0.05,0.05c-1.29-0.53-2.41-1.39-3.24-2.47l0.1-0.1L19.02,17.44z"/>
	<path fill="#545554" d="M15.23,14.08l-0.09,0.09c-0.18-0.3-0.34-0.61-0.47-0.94l0.01-0.01L15.23,14.08z"/>
	<path fill="#545554" d="M18.407,17.955l-0.88,0.85l-2.6,0.25l-0.22,2.55l-2.51,0.17l-0.35,2.67l-2.59,0.18l-0.6,3l-4.31-1.41v-2.66
		l9.76-9.86c0.13,0.33,0.29,0.64,0.47,0.94l-7.88,7.75l-0.27,1.91l8.74-8.81C15.997,16.565,17.117,17.425,18.407,17.955z"/>
</g>
</svg>
