<?xml version="1.0" encoding="utf-8"?>
<!-- Generator: Adobe Illustrator 22.0.0, SVG Export Plug-In . SVG Version: 6.00 Build 0)  -->
<svg version="1.1" xmlns="http://www.w3.org/2000/svg" xmlns:xlink="http://www.w3.org/1999/xlink" x="0px" y="0px"
	 viewBox="0 0 32 32" style="enable-background:new 0 0 32 32;" xml:space="preserve">
<style type="text/css">
	.st0{display:none;}
	.st1{display:inline;fill:#FFCE4B;}
	.st2{display:inline;fill:#FABF3A;}
	.st3{fill:none;stroke:#000000;stroke-width:3;stroke-miterlimit:10;}
</style>
<g id="Слой_1" class="st0">
	<path class="st1" d="M5,0v32l11-8l0,0l11,8V0H5z M20.4,18L16,15.7L11.7,18l0.8-4.9L9,9.7L13.8,9L16,4.5l0,0L18.2,9l4.9,0.7
		l-3.5,3.5L20.4,18z"/>
	<polygon class="st2" points="27.1,0 27.1,32 27,32 16,24 16,15.7 20.4,18 19.5,13.1 23.1,9.6 18.2,9 16,4.5 16,0 	"/>
</g>
<g id="Слой_2">
	<circle class="st3" cx="11.8" cy="12.1" r="8.6"/>
	<path d="M27.5,27.3l-0.4,0.4c-0.5,0.5-1.3,0.5-1.8,0L20.6,23c-0.5-0.5-0.5-1.3,0-1.8l0.4-0.4c0.5-0.5,1.3-0.5,1.8,0l4.8,4.7
		C27.9,26,27.9,26.8,27.5,27.3z"/>
	<path d="M22,22.3L22,22.3c-0.3,0.3-0.8,0.3-1.1,0l-2.6-2.6c-0.3-0.3-0.3-0.8,0-1.1l0,0c0.3-0.3,0.8-0.3,1.1,0l2.6,2.6
		C22.3,21.5,22.3,22,22,22.3z"/>
</g>
</svg>
