<?xml version="1.0" encoding="utf-8"?>
<!-- Generator: Adobe Illustrator 22.0.0, SVG Export Plug-In . SVG Version: 6.00 Build 0)  -->
<svg version="1.1" id="Слой_1" xmlns="http://www.w3.org/2000/svg" xmlns:xlink="http://www.w3.org/1999/xlink" x="0px" y="0px"
	 viewBox="0 0 50 50" style="enable-background:new 0 0 50 50;" xml:space="preserve">
<style type="text/css">
	.st0{fill:#AFB198;}
</style>
<path class="st0" d="M24.3,46.6L1.9,24.2c-0.4-0.4-0.4-1,0-1.3l0,0c0.4-0.4,1-0.4,1.3,0l22.4,22.4c0.4,0.4,0.4,1,0,1.3l0,0
	C25.3,46.9,24.7,46.9,24.3,46.6z"/>
<path class="st0" d="M24.3,45.2l22.4-22.4c0.4-0.4,1-0.4,1.3,0l0,0c0.4,0.4,0.4,1,0,1.3L25.7,46.6c-0.4,0.4-1,0.4-1.3,0l0,0
	C24,46.2,24,45.6,24.3,45.2z"/>
<path class="st0" d="M25.7,40.5c-0.4,0.4-1,0.4-1.3,0L12.2,28.4l-0.9-0.9l-9.4-9.4c-0.4-0.4-0.4-1,0-1.3c0.2-0.2,0.4-0.3,0.7-0.3
	c0.2,0,0.5,0.1,0.7,0.3l22.4,22.4C26,39.5,26,40.1,25.7,40.5z"/>
<path class="st0" d="M48.3,17.4c0,0.2-0.1,0.5-0.3,0.7l-9.4,9.4l-0.9,0.9l-12,12.1c-0.4,0.4-1,0.4-1.3,0c-0.2-0.2-0.3-0.4-0.3-0.7
	c0-0.2,0.1-0.5,0.3-0.7l22.4-22.4c0.4-0.4,1-0.4,1.3,0C48.3,16.9,48.3,17.2,48.3,17.4z"/>
<path class="st0" d="M41,23.9l-0.2,0.2c-0.2,0.2-0.5,0.2-0.7,0l-0.3-0.3L35,19L24.5,8.5c-0.2-0.2-0.2-0.5,0-0.7l0.2-0.2
	c0.2-0.2,0.5-0.2,0.7,0l0.2,0.2l9.4,9.3l6,6C41.2,23.4,41.2,23.7,41,23.9z"/>
<path class="st0" d="M25.5,8.5L15.1,18.9l-4.8,4.8L10,24.1c-0.2,0.2-0.5,0.2-0.7,0L9,23.9c-0.2-0.2-0.2-0.5,0-0.7l6-6l9.4-9.3
	l0.2-0.2c0.2-0.2,0.5-0.2,0.7,0l0.2,0.2C25.8,8,25.8,8.3,25.5,8.5z"/>
<path class="st0" d="M41,30.5l-0.2,0.2c-0.2,0.2-0.5,0.2-0.7,0L36.4,27l0.9-0.9l1.3,1.3l2.3,2.3C41.2,29.9,41.2,30.3,41,30.5z"/>
<path class="st0" d="M13.6,27l-1.3,1.3L10.6,30L10,30.6c-0.2,0.2-0.5,0.2-0.7,0L9,30.5c-0.2-0.2-0.2-0.5,0-0.7l0.6-0.5l1.7-1.7
	l1.3-1.3L13.6,27z"/>
<path class="st0" d="M41,19.9l-0.2,0.2c-0.2,0.2-0.5,0.2-0.7,0L37,17L24.5,4.5c-0.2-0.2-0.2-0.5,0-0.7l0.2-0.2
	c0.2-0.2,0.5-0.2,0.7,0l0.2,0.2L37,15.1l4,4C41.2,19.4,41.2,19.7,41,19.9z"/>
<path class="st0" d="M25.5,4.5L13.1,16.9L10,20.1c-0.2,0.2-0.5,0.2-0.7,0L9,19.9c-0.2-0.2-0.2-0.5,0-0.7l4-4L24.5,3.8l0.2-0.2
	c0.2-0.2,0.5-0.2,0.7,0l0.2,0.2C25.8,4,25.8,4.3,25.5,4.5z"/>
<polygon class="st0" points="16,18 15.1,18.9 14.2,18 13.1,16.9 12.2,16 13.1,15.1 14,16 15.1,17.1 "/>
<polygon class="st0" points="37.8,16 36.9,16.9 35.8,18 34.9,18.9 34,18 34.9,17.1 36,16 36.9,15.1 "/>
</svg>
