<?xml version="1.0" encoding="utf-8"?>
<!-- Generator: Adobe Illustrator 22.0.0, SVG Export Plug-In . SVG Version: 6.00 Build 0)  -->
<svg version="1.1" id="Слой_1" xmlns="http://www.w3.org/2000/svg" xmlns:xlink="http://www.w3.org/1999/xlink" x="0px" y="0px"
	 viewBox="0 0 32 32" style="enable-background:new 0 0 32 32;" xml:space="preserve">
<style type="text/css">
	.st0{fill:none;stroke:#FFFFFF;stroke-width:3;stroke-linecap:round;stroke-miterlimit:10;}
	.st1{fill:#FFFFFF;}
</style>
<path class="st0" d="M6.4,9.1c0-3.5,2.9-6.4,6.4-6.4h11.2c3.5,0,6.4,2.9,6.4,6.4v13.9c0,3.5-2.9,6.4-6.4,6.4H12.8
	c-3.5,0-6.4-2.9-6.4-6.4"/>
<path class="st1" d="M19.4,16.9h-18c-0.5,0-0.9-0.4-0.9-0.9v0c0-0.5,0.4-0.9,0.9-0.9h18c0.5,0,0.9,0.4,0.9,0.9v0
	C20.3,16.5,19.9,16.9,19.4,16.9z"/>
<path class="st1" d="M18.8,16.6l-6.5-6.5c-0.3-0.3-0.3-0.9,0-1.2l0,0c0.3-0.3,0.9-0.3,1.2,0l6.5,6.5c0.3,0.3,0.3,0.9,0,1.2l0,0
	C19.7,16.9,19.1,16.9,18.8,16.6z"/>
<path class="st1" d="M20,16.6l-6.5,6.5c-0.3,0.3-0.9,0.3-1.2,0h0c-0.3-0.3-0.3-0.9,0-1.2l6.5-6.5c0.3-0.3,0.9-0.3,1.2,0l0,0
	C20.3,15.7,20.3,16.3,20,16.6z"/>
</svg>
