<?xml version="1.0" encoding="utf-8"?>
<!-- Generator: Adobe Illustrator 22.0.0, SVG Export Plug-In . SVG Version: 6.00 Build 0)  -->
<svg version="1.1" id="Слой_1" xmlns="http://www.w3.org/2000/svg" xmlns:xlink="http://www.w3.org/1999/xlink" x="0px" y="0px"
	 viewBox="0 0 32 32" style="enable-background:new 0 0 32 32;" xml:space="preserve">
<style type="text/css">
	.st0{fill:none;stroke:#000000;stroke-width:3;stroke-linecap:round;stroke-miterlimit:10;}
</style>
<path class="st0" d="M28,22.9c0,3.5-2.9,6.4-6.4,6.4H10.3c-3.5,0-6.4-2.9-6.4-6.4V9.1c0-3.5,2.9-6.4,6.4-6.4h11.2
	c3.5,0,6.4,2.9,6.4,6.4"/>
<path d="M12.7,15.1h18c0.5,0,0.9,0.4,0.9,0.9v0c0,0.5-0.4,0.9-0.9,0.9h-18c-0.5,0-0.9-0.4-0.9-0.9v0C11.9,15.5,12.2,15.1,12.7,15.1z
	"/>
<path d="M13.3,15.4l6.5,6.5c0.3,0.3,0.3,0.9,0,1.2h0c-0.3,0.3-0.9,0.3-1.2,0l-6.5-6.5c-0.3-0.3-0.3-0.9,0-1.2l0,0
	C12.4,15.1,13,15.1,13.3,15.4z"/>
<path d="M12.1,15.4l6.5-6.5c0.3-0.3,0.9-0.3,1.2,0l0,0c0.3,0.3,0.3,0.9,0,1.2l-6.5,6.5c-0.3,0.3-0.9,0.3-1.2,0l0,0
	C11.8,16.3,11.8,15.7,12.1,15.4z"/>
</svg>
